<svg xmlns="http://www.w3.org/2000/svg" height="48" viewBox="0 -960 960 960" width="48"><path d="M479.687-222.385q141.005 0 239.467-98.394Q817.615-419.173 817.615-560q0-39.645-8.769-75.246-8.77-35.6-23.924-69.37-27.461 20.462-59.58 31.308-32.118 10.846-65.342 10.846-55.067 0-102.187-27.846-47.121-27.847-77.813-74.539-30.307 46.692-77.62 74.539-47.313 27.846-102.38 27.846-33.441 0-64.759-10.846-31.317-10.846-58.779-30.923-15.154 33.769-24.615 69.731-9.462 35.961-9.462 74.5 0 140.827 98.306 239.221 98.305 98.394 238.996 98.394ZM355.069-463.923q22.085 0 37.7-16.146 15.616-16.146 15.616-38.231T392.381-556q-16.003-15.615-38.18-15.615-21.893 0-37.701 16.003-15.807 16.003-15.807 38.181 0 21.892 16.145 37.7 16.146 15.808 38.231 15.808Zm251.538 0q22.085 0 37.7-16.146 15.616-16.146 15.616-38.231T643.919-556q-16.003-15.615-38.18-15.615-21.893 0-37.701 16.003-15.807 16.003-15.807 38.181 0 21.892 16.145 37.7 16.146 15.808 38.231 15.808ZM299.825-720.846q62.905 0 107.194-43.546t44.289-106.762V-896q-76.923 6.462-140.221 44.194T205.154-754.88q20.385 15.573 44.001 24.804 23.617 9.23 50.67 9.23Zm360.224 0q27.179 0 50.988-9.423t44.194-25.717q-42.259-58.088-106.053-94.858-63.794-36.771-139.486-44.771v24.461q0 63.216 43.561 106.762 43.56 43.546 106.796 43.546ZM89.925-84.001q-31.634 0-52.663-22.731-21.03-22.731-18.03-54.577l36.462-400.768q7.616-82.769 43.534-154.75 35.919-71.98 92.99-125.12 57.071-53.139 131.075-83.595 74.004-30.457 156.855-30.457 82.852 0 156.79 30.457 73.939 30.456 130.96 83.595 57.02 53.14 92.906 125.12 35.886 71.981 43.502 154.75l36.461 400.768q3 31.846-17.74 54.577-20.74 22.73-51.952 22.73H89.925Zm390.041-80q-134.658 0-238.004-80.77-103.346-80.769-137.961-204.384L77.616-155.848q-.384 5.385 3.27 9.424t9.039 4.039h781.15q5.385 0 9.039-4.039t3.27-9.424l-26.385-292.923q-35.615 123.616-138.847 204.193-103.232 80.577-238.186 80.577Zm29.726-731.614ZM451.308-896Zm28.658 753.615h403.418H77.616h402.35Z"/></svg>